<svg id="Layer_1" data-name="Layer 1" xmlns="http://www.w3.org/2000/svg" viewBox="0 0 191.76 345.26"><defs><style>.cls-1{fill:#fff;stroke:#231f20;stroke-miterlimit:10;}.cls-2{fill:#231f20;}.cls-3,.cls-4{fill:#dc3745;}.cls-4{fill-rule:evenodd;}</style></defs><title>4 digits</title><rect class="cls-1" x="0.5" y="0.5" width="190.76" height="344.26" rx="17.48"/><path class="cls-2" d="M51.53.5h88.7a0,0,0,0,1,0,0v4a11.91,11.91,0,0,1-11.91,11.91H63.42a11.9,11.9,0,0,1-11.9-11.9V.51A0,0,0,0,1,51.53.5Z"/><path class="cls-3" d="M40.57,195.19,33.85,204v.15l10.69-1.42v4.81l-10.69-1.27v.14l6.79,8.5-4.46,2.55-4.25-9.92h-.14l-4.6,10-4-2.55,6.73-8.64v-.14L19.4,207.58v-4.81l10.41,1.35V204l-6.66-8.64,4.32-2.47,4.39,9.84H32l4.32-9.91Z" transform="translate(-5.8 -8.49)"/><path class="cls-3" d="M180,195.19,173.28,204v.15L184,202.77v4.81l-10.69-1.27v.14l6.8,8.5-4.47,2.55-4.24-9.92h-.15l-4.6,10-4-2.55,6.72-8.64v-.14l-10.48,1.34v-4.81l10.41,1.35V204l-6.65-8.64,4.32-2.47,4.39,9.84h.14l4.32-9.91Z" transform="translate(-5.8 -8.49)"/><path class="cls-3" d="M133.53,195.19,126.8,204v.15l10.69-1.42v4.81l-10.69-1.27v.14l6.8,8.5-4.46,2.55-4.25-9.92h-.14l-4.6,10-4-2.55,6.73-8.64v-.14l-10.48,1.34v-4.81l10.41,1.35V204l-6.66-8.64,4.32-2.47,4.39,9.84H125l4.32-9.91Z" transform="translate(-5.8 -8.49)"/><path class="cls-3" d="M87.05,195.19,80.32,204v.15L91,202.77v4.81l-10.7-1.27v.14l6.8,8.5-4.46,2.55-4.25-9.92h-.14l-4.6,10-4-2.55,6.73-8.64v-.14l-10.48,1.34v-4.81l10.41,1.35V204l-6.66-8.64L74,192.86l4.39,9.84h.14l4.32-9.91Z" transform="translate(-5.8 -8.49)"/><path class="cls-4" d="M89.87,126h3v-8c0-17.42,21.87-17.42,21.87,0v8h3a5.71,5.71,0,0,1,5.72,5.72v18.08a5.72,5.72,0,0,1-5.72,5.72H89.87a5.67,5.67,0,0,1-5.71-5.72V131.67A5.67,5.67,0,0,1,89.87,126Zm6.19,0h15.49v-8c0-13.23-15.49-13.23-15.49,0Zm-6.19,3.19h27.86a2.53,2.53,0,0,1,2.53,2.53v18.08a2.53,2.53,0,0,1-2.53,2.53H89.87a2.52,2.52,0,0,1-2.52-2.53V131.67A2.52,2.52,0,0,1,89.87,129.14Z" transform="translate(-5.8 -8.49)"/></svg>