<svg id="Layer_1" data-name="Layer 1" xmlns="http://www.w3.org/2000/svg" viewBox="0 0 66 86"><defs><style>.cls-1{fill:#dc3545;}.cls-2{fill:#dd3745;}</style></defs><title>Phone_lock</title><path class="cls-1" d="M7.13,1.08A7.07,7.07,0,0,0,0,8.08v72a7.07,7.07,0,0,0,7.13,7H42.88a7.07,7.07,0,0,0,7.12-7v-18H63.13A2.87,2.87,0,0,0,66,59.23V40.89a2.84,2.84,0,0,0-2.87-2.81H61V29.89c0-5.5-5-9.81-11-9.81v-12a7.08,7.08,0,0,0-7.12-7Zm0,2H42.88A5,5,0,0,1,48,8h0V9.08H2v-1a5,5,0,0,1,5-5ZM2,11.08H48v9.15c-5.06.83-9,4.75-9,9.62v8.23H36.88A2.87,2.87,0,0,0,34,40.85V59.14a2.92,2.92,0,0,0,2.88,2.94H48v11H2Zm48,11c5,0,9,3.54,9,7.81v8.19H41V29.89C41,25.62,45,22.08,50,22.08Zm-13.12,18H63.13a.82.82,0,0,1,.87.75v18.4a.82.82,0,0,1-.82.84H36.88a1,1,0,0,1-.88-.94V40.89a.81.81,0,0,1,.81-.81h.07Zm13.12,6a4,4,0,1,0,4,4A4,4,0,0,0,50,46.08Zm0,2a2,2,0,1,1-2,2A2,2,0,0,1,50,48.08Zm-48,27H48v5a5,5,0,0,1-5,5H7.13A5,5,0,0,1,2,80.22H2Zm16.82,4a1,1,0,1,0,.18,2H31a1,1,0,0,0,0-2Z" transform="translate(0 -1.08)"/><path class="cls-2" d="M18.12,64.16l-.75,1h0L18.56,65v.53l-1.19-.14h0l.75.94-.49.28-.47-1.1h0l-.51,1.11-.45-.28.75-1h0l-1.17.15V65l1.16.15h0l-.74-1,.48-.28.49,1.1h0l.48-1.1Z" transform="translate(0 -1.08)"/><path class="cls-2" d="M33.63,64.16l-.75,1h0L34.07,65v.53l-1.19-.14h0l.76.94-.5.28-.47-1.1h0l-.51,1.11-.45-.28.75-1h0l-1.17.15V65l1.16.15h0l-.74-1,.48-.28.49,1.1h0l.48-1.1Z" transform="translate(0 -1.08)"/><path class="cls-2" d="M28.46,64.16l-.75,1h0L28.9,65v.53l-1.19-.14h0l.76.94-.5.28-.47-1.1h0L27,66.65l-.45-.28.75-1h0l-1.17.15V65l1.16.15h0l-.74-1L27,63.9l.49,1.1h0L28,63.9Z" transform="translate(0 -1.08)"/><path class="cls-2" d="M23.29,64.16l-.75,1h0L23.73,65v.53l-1.19-.14h0l.76.94-.5.28-.47-1.1h0l-.51,1.11-.45-.28.75-1h0L21,65.49V65l1.16.15h0l-.74-1,.48-.28.49,1.1h0l.48-1.1Z" transform="translate(0 -1.08)"/></svg>