<svg id="Layer_1" data-name="Layer 1" xmlns="http://www.w3.org/2000/svg" viewBox="0 0 66 86"><defs><style>.cls-1{fill:#dc3545;}</style></defs><title>Phone_lock</title><path class="cls-1" d="M9.32,2.85a7.07,7.07,0,0,0-7.13,7v72a7.07,7.07,0,0,0,7.13,7H45.07a7.07,7.07,0,0,0,7.12-7v-18H65.32A2.87,2.87,0,0,0,68.19,61V42.66a2.85,2.85,0,0,0-2.87-2.81H63.19V31.66c0-5.5-5-9.81-11-9.81v-12a7.07,7.07,0,0,0-7.12-7Zm0,2H45.07a5,5,0,0,1,5.12,5v1h-46v-1A5,5,0,0,1,9.32,4.85Zm-5.13,8h46V22c-5.06.83-9,4.75-9,9.62v8.19H39.07a2.86,2.86,0,0,0-2.88,2.81V60.91a2.93,2.93,0,0,0,2.88,2.94H50.19v11h-46Zm48,11c5.05,0,9,3.54,9,7.81v8.19h-18V31.66C43.19,27.39,47.15,23.85,52.19,23.85Zm-13.12,18H65.32a.81.81,0,0,1,.87.81V61a.83.83,0,0,1-.87.84H39.07a1,1,0,0,1-.88-.94V42.66A.82.82,0,0,1,39.07,41.85Zm13.12,6a4,4,0,1,0,4,4A4,4,0,0,0,52.19,47.85Zm0,2a2,2,0,1,1-2,2A2,2,0,0,1,52.19,49.85Zm-48,27h46v5a5,5,0,0,1-5.12,5H9.32a5,5,0,0,1-5.13-5Zm16.82,4a1,1,0,1,0,.18,2h12a1,1,0,1,0,0-2H21Z" transform="translate(-2.19 -2.85)"/></svg>